HIERARCHY
ROOT Hips
{
    OFFSET 0.0 0.0 0.0
    CHANNELS 6 Xposition Yposition Zposition Zrotation Xrotation Yrotation
    JOINT LeftUpLeg
    {
        OFFSET 13.657167746836471 0.0 0.0
        CHANNELS 3 Zrotation Xrotation Yrotation
        JOINT LeftLeg
        {
            OFFSET 0.0 0.0 -50.32970777524156
            CHANNELS 3 Zrotation Xrotation Yrotation
            JOINT LeftFoot
            {
                OFFSET 0.0 0.0 -40.16889191350016
                CHANNELS 3 Zrotation Xrotation Yrotation
                JOINT LeftToeBase
                {
                    OFFSET 0.0 -10.968672293762406 0.0
                    CHANNELS 3 Zrotation Xrotation Yrotation
                    End Site
                    {
                        OFFSET 0 0 0
                    }
                }
            }
        }
    }
    JOINT RightUpLeg
    {
        OFFSET -13.657167746836471 0.0 0.0
        CHANNELS 3 Zrotation Xrotation Yrotation
        JOINT RightLeg
        {
            OFFSET 0.0 0.0 -50.32970777524156
            CHANNELS 3 Zrotation Xrotation Yrotation
            JOINT RightFoot
            {
                OFFSET 0.0 0.0 -40.16889191350016
                CHANNELS 3 Zrotation Xrotation Yrotation
                JOINT RightToeBase
                {
                    OFFSET 0.0 -10.968672293762406 0.0
                    CHANNELS 3 Zrotation Xrotation Yrotation
                    End Site
                    {
                        OFFSET 0 0 0
                    }
                }
            }
        }
    }
    JOINT Spine
    {
        OFFSET 0.0 0.0 11.632399322143366
        CHANNELS 3 Zrotation Xrotation Yrotation
        JOINT Spine1
        {
            OFFSET 0.0 0.0 11.58053449850095
            CHANNELS 3 Zrotation Xrotation Yrotation
            JOINT Spine2
            {
                OFFSET 0.0 0.0 11.580534498500954
                CHANNELS 3 Zrotation Xrotation Yrotation
                JOINT Spine3
                {
                    OFFSET 0.0 0.0 11.58053449850095
                    CHANNELS 3 Zrotation Xrotation Yrotation
                    JOINT Spine4
                    {
                        OFFSET 0.0 0.0 11.580534498500956
                        CHANNELS 3 Zrotation Xrotation Yrotation
                        JOINT RightShoulder
                        {
                            OFFSET -22.56377678385227 0.0 0.0
                            CHANNELS 3 Zrotation Xrotation Yrotation
                            JOINT RightArm
                            {
                                OFFSET -31.492436603099335 0.0 0.0
                                CHANNELS 3 Zrotation Xrotation Yrotation
                                JOINT RightForeArm
                                {
                                    OFFSET -30.420649885086902 0.0 0.0
                                    CHANNELS 3 Zrotation Xrotation Yrotation
                                    JOINT RightHand
                                    {
                                        OFFSET -10.073514517287517 0.0 0.0
                                        CHANNELS 3 Zrotation Xrotation Yrotation
                                        End Site
                                        {
                                            OFFSET 0 0 0
                                        }
                                    }
                                }
                            }
                        }
                        JOINT LeftShoulder
                        {
                            OFFSET 22.56377678385227 0.0 0.0
                            CHANNELS 3 Zrotation Xrotation Yrotation
                            JOINT LeftArm
                            {
                                OFFSET 31.492436603099335 0.0 0.0
                                CHANNELS 3 Zrotation Xrotation Yrotation
                                JOINT LeftForeArm
                                {
                                    OFFSET 30.420649885086902 0.0 0.0
                                    CHANNELS 3 Zrotation Xrotation Yrotation
                                    JOINT LeftHand
                                    {
                                        OFFSET 10.073514517287517 0.0 0.0
                                        CHANNELS 3 Zrotation Xrotation Yrotation
                                        End Site
                                        {
                                            OFFSET 0 0 0
                                        }
                                    }
                                }
                            }
                        }
                        JOINT Neck
                        {
                            OFFSET 0.0 0.0 11.580534476555295
                            CHANNELS 3 Zrotation Xrotation Yrotation
                            JOINT Head
                            {
                                OFFSET 0.0 0.0 25.371507836486618
                                CHANNELS 3 Zrotation Xrotation Yrotation
                                End Site
                                {
                                    OFFSET 0 0 0
                                }
                            }
                        }
                    }
                }
            }
        }
    }
}
MOTION
Frames: 4
Frame Time: 0.03333333333333333
16.714580172300337 -17.883037161827087 491.66466751098636 143.87887403553583 -80.2129809086457 140.1689053436972 -11.704235216377116 12.472010517833057 -12.361919297924556 10.206010294123594 -5.274584976736893 20.946920444202334 43.738714564722244 -1.5902773407317584e-14 51.79362240639154 -6.361109362927035e-15 -8.827812596100317e-32 1.5902773407317588e-15 45.70219740758851 37.1785120742288 5.686933017684996 -63.466619848903846 -20.213644145898876 -49.10726614591899 175.27545230679462 -1.0734372049939369e-14 -68.35982569940582 0.0 0.0 -3.1805546814635168e-15 -0.17747548722284645 1.9704691535960699 0.3236265527095584 0.0 0.0 0.0 0.0 0.0 0.0 0.0 0.0 0.0 0.0 0.0 0.0 -29.196130064977186 -33.78774693208072 41.21669895576938 7.843550738982245 -2.5384855674151292e-14 1.7402584970045181e-15 180.0 -30.105497313682488 -180.0 -2.782985346280577e-15 -1.9878466759146985e-16 1.1927080055488188e-15 -155.2981927135267 15.249889564855312 166.15452303926094 -123.14903051960498 -2.2709896240934705e-15 -4.1956458753407266e-15 180.0 -71.59795142765365 180.0 -1.987846675914698e-16 1.7241821476758432e-34 -9.93923337957349e-17 -1.1745270206222627 1.557465634336446e-14 -6.355395766229969e-16 7.951386703658791e-16 0.0 0.0
16.656351971626282 -18.48490469455719 491.85678577423096 145.97412559891563 -80.05660821682402 142.14427856576106 -12.832040716105311 13.268080947405616 -12.81115856887052 10.580490575733618 -5.2189447251407595 21.911675686221095 44.827328594493764 3.1805546814635168e-15 51.86721039735894 -7.951386703658792e-16 1.1034765745125397e-32 -1.5902773407317584e-15 45.27209437418376 36.84736971349937 5.25517272089975 -62.83265189147329 -20.632275950280167 -42.90061994063727 158.9951018544133 8.74652537402467e-15 -40.09644849510366 3.1805546814635168e-15 -4.344939012143125e-32 -1.5654292572828246e-15 -0.17206015668774563 1.8901963518402423 0.18616419231238765 7.951386703658792e-16 0.0 0.0 7.951386703658792e-16 0.0 0.0 7.951386703658792e-16 0.0 0.0 7.951386703658792e-16 0.0 0.0 -28.07072037012461 -35.52860262776048 41.761793212728904 9.57929554226105 -2.107170850293566e-15 1.2943361557104262e-14 -179.99999999999997 -48.33701285774549 -180.0 5.5659706925611536e-15 -6.361109362927033e-15 3.089734408635111e-31 -155.74447979411164 15.207720448234786 165.6315285087846 -123.20449511954635 -3.0252781091656846e-15 -5.595659450799421e-15 -180.0 -67.2066850211526 -180.0 6.957463365701443e-16 7.241565020238542e-33 1.1927080055488188e-15 -1.5088928444806093 -2.697736552981677e-15 -8.307323070404273e-16 0.0 0.0 0.0
16.463050264120103 -19.21439707875252 492.064532661438 148.17108107551846 -79.88391237611255 144.26858172448598 -13.723755863574901 13.953848678900682 -13.669259801060926 11.716239345472488 -5.446357955459514 27.41779922987058 53.85887511921085 -6.3611093629270335e-15 45.53875277327105 1.3914926731402886e-15 0.0 0.0 44.78261108626448 36.41926418780735 5.625848981323535 -60.37431681505332 -19.953720462091702 -36.62085561156434 104.3812185075395 -6.3611093629270335e-15 -34.401068294471884 -6.3611093629270335e-15 -1.7655625192200634e-31 3.1805546814635168e-15 -0.1617381837780961 1.8724187029815282 0.06143316334516256 0.0 0.0 0.0 0.0 0.0 0.0 0.0 0.0 0.0 0.0 0.0 0.0 -28.60469516183894 -35.7905876338872 41.617590356408584 11.335120102684439 2.56581367149214e-16 -2.5594893449153715e-14 179.99999999999994 -71.9467942197751 179.99999999999994 0.0 0.0 0.0 -156.3183645589075 15.106147605671639 165.4024960187399 -123.29575230296693 -1.1196133828664423e-14 6.041641879415563e-15 -180.0 -64.01481417093072 -180.0 -6.460501696722768e-16 -4.969616689786744e-16 -1.2175560889977523e-15 -1.7983941006954405 -1.055913497465087e-15 -1.657281338950296e-17 0.0 0.0 -7.951386703658792e-16
16.135223186016084 -20.00134892463684 492.27166957855223 150.45136091461285 -79.73690197295078 146.55845276085924 -14.416555535663448 14.528847148335265 -14.839956432002428 10.854786382293506 -4.7176778009531946 38.422555752022156 83.8372442597266 3.1805546814635168e-15 41.06247400555366 -8.827812596100317e-32 -3.1805546814635164e-15 -3.1805546814635164e-15 45.76907634557394 36.584588294056324 6.071268403884865 -56.12862078886099 -18.03356980978244 -30.745848324263687 66.36345776410595 -9.54166404439055e-15 -47.88171483476246 6.361109362927032e-15 0.0 0.0 -0.14857505271572216 1.8918572548504204 -0.04843777669641598 0.0 0.0 0.0 0.0 0.0 0.0 0.0 0.0 0.0 0.0 0.0 0.0 -30.313795642821496 -34.47935462994397 41.020840887404866 12.427084090615697 1.874191704042773e-15 6.194648510619102e-15 -6.121019357786825e-13 -89.58050678788211 -6.165999494844989e-13 -2.3854160110976376e-15 0.0 0.0 -156.83345767479852 15.12720428299328 165.25902529823108 -123.32024945787673 0.0 -0.0 180.0 -62.18322199869804 -180.0 -1.2424041724466862e-16 -7.341244300651051e-34 6.77110273983444e-16 -2.045227375742855 -1.6379394614751904e-14 -2.678166083651771e-15 0.0 0.0 0.0
